# xmcd
#
# Track frame offsets: 
#        150
#        10213
#        21366
#        33937
#        43301
#        52916
#        62898
#        74523
#        83707
#        95528
#        108001
#        123200
#        134630
#        144808
#        157533
#        169262
#        181704
#        193672
#        204171
#
# Disc length: 2953 seconds
#
# Revision: 1
# Processed by: cddbd v1.5.2PL0 Copyright (c) Steve Scherf et al.
# Submitted via: ExactAudioCopy v1.3
#
DISCID=f50b8713
DTITLE=Lester Flatt - Flatt on Victor Plus More_CD2
DYEAR=1999
DGENRE=Bluegrass
TTITLE0=Highway 41
TTITLE1=Walkin' the Railroad Tracks
TTITLE2=Great Big Woman
TTITLE3=I Live the Life of Riley
TTITLE4=I Been Walkin'
TTITLE5=Aiken, South Carolina
TTITLE6=Regina
TTITLE7=Lil' Dave
TTITLE8=Mississippi Flood
TTITLE9=Don't Wake Me
TTITLE10=Ten Years of Heartaches
TTITLE11=Before I Met You
TTITLE12=Maiden's Prayer
TTITLE13=Lookin' for a Break
TTITLE14=Vic's Ride
TTITLE15=Reuben James
TTITLE16=See Rudy Fall
TTITLE17=Rainbow of My Dreams
TTITLE18=She Belongs to Me
EXTD=
EXTT0=
EXTT1=
EXTT2=
EXTT3=
EXTT4=
EXTT5=
EXTT6=
EXTT7=
EXTT8=
EXTT9=
EXTT10=
EXTT11=
EXTT12=
EXTT13=
EXTT14=
EXTT15=
EXTT16=
EXTT17=
EXTT18=
PLAYORDER=
